<?xml version="1.0" encoding="UTF-8"?>
<!DOCTYPE svg PUBLIC "-//W3C//DTD SVG 1.1//EN" "http://www.w3.org/Graphics/SVG/1.1/DTD/svg11.dtd">
<!-- Creator: CorelDRAW 2018 (64-Bit) -->
<svg xmlns="http://www.w3.org/2000/svg" xml:space="preserve" width="223px" height="64px" version="1.1" style="shape-rendering:geometricPrecision; text-rendering:geometricPrecision; image-rendering:optimizeQuality; fill-rule:evenodd; clip-rule:evenodd"
viewBox="0 0 20.06 5.75"
 xmlns:xlink="http://www.w3.org/1999/xlink">
 <defs>
  <style type="text/css">
   <![CDATA[
    .fil0 {fill:#326096}
    .fil1 {fill:#69A0B9}
    .fil2 {fill:#A2C8E2}
   ]]>
  </style>
 </defs>
 <g id="_1">
  <metadata id="_7"/>
  <path class="fil0" d="M10.46 4.07c0,-2.4 0,-2.4 0,-2.4 0.89,0 0.89,0 0.89,0 0.28,0 0.51,0.09 0.67,0.21 0.14,0.13 0.24,0.31 0.24,0.56 0,0.25 -0.1,0.45 -0.28,0.57 -0.17,0.15 -0.4,0.21 -0.67,0.21 -0.57,0 -0.57,0 -0.57,0 0,0.85 0,0.85 0,0.85l-0.28 0zm0.28 -1.1l0 0c0.6,0 0.6,0 0.6,0 0.18,0 0.35,-0.04 0.46,-0.14 0.13,-0.1 0.18,-0.22 0.18,-0.39 0,-0.17 -0.05,-0.28 -0.17,-0.38 -0.12,-0.09 -0.27,-0.15 -0.47,-0.15 -0.6,0 -0.6,0 -0.6,0l0 1.06z"/>
  <path class="fil0" d="M13.83 4.11c-0.33,0 -0.62,-0.11 -0.85,-0.36 -0.22,-0.24 -0.33,-0.53 -0.33,-0.89 0,-0.32 0.11,-0.63 0.33,-0.87 0.24,-0.23 0.52,-0.36 0.88,-0.36 0.19,0 0.36,0.04 0.5,0.1 0.14,0.07 0.28,0.17 0.42,0.29 -0.18,0.2 -0.18,0.2 -0.18,0.2 -0.23,-0.23 -0.49,-0.34 -0.74,-0.34 -0.28,0 -0.5,0.09 -0.67,0.3 -0.19,0.18 -0.26,0.4 -0.26,0.68 0,0.29 0.07,0.53 0.26,0.71 0.18,0.18 0.39,0.29 0.67,0.29 0.14,0 0.28,-0.03 0.4,-0.08 0.11,-0.06 0.24,-0.15 0.35,-0.27 0.18,0.2 0.18,0.2 0.18,0.2 -0.12,0.12 -0.28,0.23 -0.42,0.29 -0.15,0.07 -0.33,0.11 -0.54,0.11z"/>
  <path class="fil0" d="M15.26 4.07c0,-2.4 0,-2.4 0,-2.4 1.02,0 1.02,0 1.02,0 0.28,0 0.5,0.09 0.63,0.21 0.09,0.11 0.15,0.24 0.15,0.39 0,0.27 -0.13,0.45 -0.38,0.56 0.34,0.11 0.5,0.29 0.5,0.6 0,0.2 -0.07,0.35 -0.22,0.46 -0.16,0.13 -0.36,0.18 -0.62,0.18l-1.08 0zm0.28 -0.24l0 0c0.8,0 0.8,0 0.8,0 0.18,0 0.33,-0.04 0.42,-0.11 0.12,-0.09 0.17,-0.18 0.17,-0.33 0,-0.14 -0.05,-0.23 -0.17,-0.31 -0.11,-0.07 -0.26,-0.11 -0.48,-0.11 -0.74,0 -0.74,0 -0.74,0l0 0.86zm0 -1.1l0 0c0.7,0 0.7,0 0.7,0 0.17,0 0.3,-0.04 0.39,-0.11 0.11,-0.07 0.15,-0.17 0.15,-0.32 0,-0.11 -0.04,-0.22 -0.13,-0.28 -0.09,-0.07 -0.22,-0.11 -0.39,-0.11 -0.72,0 -0.72,0 -0.72,0l0 0.82z"/>
  <path class="fil0" d="M19.73 3.74c-0.25,0.23 -0.54,0.37 -0.89,0.37 -0.36,0 -0.65,-0.14 -0.88,-0.37 -0.22,-0.24 -0.33,-0.52 -0.33,-0.88 0,-0.32 0.11,-0.63 0.33,-0.87 0.24,-0.23 0.52,-0.36 0.89,-0.36 0.35,0 0.66,0.13 0.88,0.36 0.22,0.24 0.33,0.55 0.33,0.87 0,0.36 -0.11,0.64 -0.33,0.88zm-1.56 -0.17l0 0c0.18,0.18 0.41,0.29 0.68,0.29 0.27,0 0.49,-0.11 0.67,-0.29 0.17,-0.18 0.26,-0.42 0.26,-0.71 0,-0.25 -0.09,-0.5 -0.26,-0.68 -0.18,-0.21 -0.4,-0.3 -0.68,-0.3 -0.26,0 -0.49,0.09 -0.67,0.3 -0.17,0.18 -0.26,0.4 -0.26,0.68 0,0.29 0.09,0.53 0.26,0.71z"/>
  <path class="fil1" d="M0.79 4.02c-0.53,-0.36 -0.79,-0.75 -0.79,-1.16 0.32,0.13 0.69,0.24 1.12,0.33 0.02,0.02 0.04,0.02 0.06,0.03 0.09,0.25 0.27,0.51 0.55,0.75 0.45,0.37 1.09,0.64 1.81,0.78 -0.45,-0.15 -0.85,-0.41 -1.14,-0.73 -0.2,-0.2 -0.32,-0.42 -0.4,-0.66 0.18,0.03 0.36,0.05 0.53,0.08 0.08,0.18 0.17,0.36 0.29,0.53 0.46,0.58 1.2,0.89 1.95,0.89 0.03,0 0.05,0 0.06,0 0.13,0 0.25,-0.01 0.37,-0.02 0.05,0.1 0.05,0.1 0.05,0.1 0,0.01 0,0.01 0,0.01 -0.17,0 -0.33,0 -0.49,0 -1.53,0 -3.04,-0.33 -3.97,-0.93zm5.01 0.89l0 0c0,-0.23 0,-0.23 0,-0.23 0.09,-0.04 0.2,-0.08 0.3,-0.15 0.48,-0.26 0.8,-0.65 0.96,-1.09 0.17,-0.03 0.33,-0.05 0.5,-0.08 -0.17,0.5 -0.58,0.94 -1.2,1.25 -0.11,0.06 -0.24,0.11 -0.36,0.14 0.27,-0.04 0.55,-0.12 0.81,-0.22 0.86,-0.31 1.41,-0.79 1.58,-1.31 0.41,-0.1 0.79,-0.21 1.12,-0.33 0.02,0 0.04,-0.01 0.06,-0.03 -0.01,0.69 -0.77,1.35 -2.15,1.75 -0.52,0.14 -1.06,0.24 -1.62,0.3z"/>
  <path class="fil2" d="M2 3.36c-0.28,-0.82 0.17,-1.74 1.2,-2.24 0.11,-0.05 0.23,-0.1 0.34,-0.13 -0.26,0.05 -0.52,0.12 -0.78,0.2 -1.24,0.46 -1.82,1.26 -1.58,2.03 -0.02,-0.01 -0.04,-0.01 -0.06,-0.03 -0.43,-0.09 -0.8,-0.2 -1.12,-0.33 0,-0.67 0.75,-1.34 2.16,-1.74 0.51,-0.14 1.07,-0.24 1.65,-0.29 0,0.22 0,0.22 0,0.22 -0.11,0.05 -0.21,0.1 -0.32,0.14 -0.88,0.5 -1.24,1.43 -0.96,2.25 -0.17,-0.03 -0.35,-0.05 -0.53,-0.08zm4.77 -1.59l0 0c-0.45,-0.58 -1.17,-0.89 -1.91,-0.9 -0.03,0 -0.04,0 -0.05,0 -0.13,0 -0.28,0.01 -0.41,0.03 -0.05,-0.13 -0.04,-0.11 -0.04,-0.11 0.15,-0.01 0.29,-0.01 0.44,-0.01 1.53,0 3.05,0.33 3.98,0.94 0.54,0.35 0.79,0.75 0.79,1.14 -0.02,0.02 -0.04,0.03 -0.06,0.03 -0.33,0.12 -0.71,0.23 -1.12,0.33 0.16,-0.49 -0.01,-1.01 -0.55,-1.45 -0.46,-0.38 -1.11,-0.65 -1.84,-0.79 0.47,0.15 0.87,0.41 1.17,0.74 0.45,0.5 0.57,1.1 0.39,1.64 -0.17,0.03 -0.33,0.05 -0.5,0.08 0.19,-0.55 0.11,-1.16 -0.29,-1.67z"/>
  <g id="_2">
   <path class="fil0" d="M5.78 3.11c0,0 0,0 0,0.82 0.11,-0.07 0.19,-0.22 0.19,-0.42 0,-0.18 -0.08,-0.35 -0.19,-0.4z"/>
   <polygon class="fil0" points="4.54,3.01 4.54,4.06 5.05,4.06 5.66,5.75 5.66,2.16 5.05,3.01 "/>
   <polygon class="fil0" points="5.07,2.72 5.07,1.69 4.54,1.69 3.93,0 3.93,3.6 4.54,2.72 "/>
   <path class="fil0" d="M3.63 2.24c0,0.19 0.07,0.36 0.19,0.41 0,0 0,0 0,-0.82 -0.12,0.06 -0.19,0.23 -0.19,0.41z"/>
  </g>
 </g>
</svg>
